<?xml version="1.0" encoding="utf-8"?>
<!-- Generator: Adobe Illustrator 24.2.3, SVG Export Plug-In . SVG Version: 6.00 Build 0)  -->
<svg version="1.1" id="Layer_1" xmlns="http://www.w3.org/2000/svg" xmlns:xlink="http://www.w3.org/1999/xlink" x="0px" y="0px"
	 viewBox="0 0 595.28 841.89" style="enable-background:new 0 0 595.28 841.89;" xml:space="preserve">
<style type="text/css">
	.st0{fill:#FFFFFF;}
</style>
<g>
	<path class="st0" d="M554,656.94c-176.04,0-352.04,0-528,0c0-157.37,0-314.7,0-472c176.04,0,352.04,0,528,0
		C554,342.32,554,499.65,554,656.94z M305.21,291.4c0.44-0.17,0.87-0.34,1.31-0.51c0.44,0.42,1.02,0.76,1.3,1.26
		c13.44,23.77,33.53,40.57,56.83,53.99c19.02,10.96,38.2,21.65,57.03,32.92c17.11,10.23,31.66,23.18,40.69,41.46
		c0.48,0.97,2.45,1.2,3.72,1.78c0.38-0.55,0.76-1.11,1.13-1.66c-2.86-4.82-5.48-9.8-8.64-14.42c-11.5-16.82-28.12-27.6-45.3-37.64
		c-19.66-11.49-39.64-22.48-59.01-34.44c-20.69-12.77-36.61-30.2-47.1-52.3c-0.9-1.89-1.39-3.98-2.26-6.54
		c1.32,0.43,1.77,0.43,1.91,0.65c0.84,1.23,1.64,2.5,2.41,3.77c12.03,19.81,27.96,35.61,49.04,45.53
		c18.03,8.48,36.38,16.3,54.71,24.12c29,12.36,56.46,26.98,77.91,50.83c4.66,5.17,9.46,10.21,14.23,15.34
		c4.09-2.33,1.68-4.29,0-6.31c-21.81-26.14-48.28-45.97-79.7-59.36c-22.62-9.63-45.12-19.55-67.39-29.96
		c-13.24-6.19-25.06-14.91-33.69-26.81c-8.47-11.67-15.76-24.2-23.52-36.38c-0.26-0.41,0.02-1.17,0.12-3.14
		c72.48,48.15,144.17,95.78,216.27,143.68c2.5-4.64,4.74-8.8,7.05-13.08c-1.61-1.16-2.78-2.06-4.01-2.88
		c-34.8-23.09-69.59-46.22-104.46-69.2c-2.95-1.95-4.3-3.92-4.31-7.56c-0.06-13.96-0.61-27.92-0.7-41.88
		c-0.02-3.63-1.37-4.58-4.72-4.47c-5.66,0.19-11.33,0.05-17,0.05c-6.67-0.01-6.68-0.01-6.68,6.86c0,7.73,0,15.46,0,23.37
		c-1.35-0.14-1.93-0.03-2.28-0.26c-12.38-8.39-25.64-15.78-36.92-25.46c-24.08-20.67-56.39-25.89-84.51-11.24
		c-7.58,3.95-13.99,10.06-21.17,14.84c-46.97,31.23-94.01,62.37-141.02,93.54c-11.9,7.89-23.79,15.77-36.05,23.9
		c2.38,4.48,4.6,8.66,6.94,13.08c1.84-1.13,3.27-1.95,4.63-2.86c41.05-27.21,82.15-54.35,123.12-81.67
		c26.02-17.35,51.82-35.02,77.8-52.43c3.31-2.22,7.09-3.73,10.66-5.56c0.3,0.37,0.6,0.75,0.9,1.12
		c-3.85,6.49-7.92,12.85-11.51,19.49c-11.39,21.08-28.06,36.69-49.62,46.78c-20.31,9.5-40.91,18.4-61.61,27.03
		c-32.31,13.46-59.63,33.52-82.07,60.27c-1.73,2.06-4.53,4.23-0.12,6.46c0.32-0.21,0.66-0.34,0.88-0.57
		c1.55-1.73,3.1-3.47,4.61-5.24c20.42-23.95,45-42.28,74.05-54.6c17.59-7.46,35.06-15.21,52.66-22.64
		c26.09-11.01,48.27-26.7,63-51.52c1.14-1.92,2.45-3.73,3.69-5.6c0.4,0.18,0.8,0.35,1.19,0.53c-0.44,1.42-0.73,2.89-1.33,4.24
		c-8.03,18.17-19.68,33.99-35.89,45.2c-19.1,13.21-39.44,24.66-59.43,36.57c-17.87,10.64-36.58,20.16-50.3,36.35
		c-5.11,6.03-9.11,13.02-13.44,19.68c-1.4,2.15-1.79,4.48,2.25,4.71c7.49-16.58,19.5-29.44,34.68-38.93
		c19.17-11.98,38.87-23.13,58.53-34.3c25.1-14.27,47.56-31.27,62.14-56.92c0.32-0.57,1.13-0.87,1.78-1.36
		c0.28,0.63,0.54,0.95,0.51,1.22c-0.1,0.81-0.28,1.61-0.5,2.4c-4.83,17.27-15.11,31.09-28.65,42.29
		c-10.61,8.78-22.06,16.59-33.43,24.41c-21.32,14.66-41.88,30.16-59.12,49.63c-4.45,5.02-7.85,10.64-8.48,18.03
		c1.52-0.36,2.99-0.98,3.75-2.1c3.42-5.05,5.83-11.07,10.09-15.22c11.07-10.77,22.41-21.4,34.6-30.86
		c15.23-11.82,31.66-22.09,47.13-33.62c17.69-13.18,32.04-29.28,37.81-51.17c3.49-13.26,5.66-26.87,8.48-40.31
		c0.19-0.9,0.9-1.69,1.95-3.57c1.68,8.38,2.99,15.51,4.56,22.58c3.02,13.57,5.39,27.31,12.67,39.59
		c9.64,16.28,23.42,28.29,38.54,39.2c19.42,14,38.92,27.94,57.63,42.85c10.7,8.52,21.29,17.77,26.22,31.44
		c0.29,0.81,2.29,1.01,3.5,1.49c0.39-0.44,0.78-0.87,1.17-1.31c-2.23-4.37-3.62-9.51-6.84-12.96
		c-9.74-10.42-19.43-21.14-30.55-29.98c-17.29-13.75-35.77-26.03-53.7-38.98c-15.61-11.28-28.84-24.67-36.76-42.53
		C307.5,299.7,306.53,295.47,305.21,291.4z M178.8,483.99c-10.14-1.87-10.71-1.42-10.71,7.85c0,21.45-0.08,42.91,0.05,64.36
		c0.02,4.02-1.07,6.44-5.18,7.74c-4.25,1.35-8.24,3.49-11.17,4.77c92.43-16.89,185.98-16.8,280.6-0.25
		c-4.14-1.82-7.35-3.63-10.79-4.64c-3.95-1.17-4.96-3.42-4.93-7.32c0.16-22.45,0.08-44.9,0.08-67.36c0-1.78,0-3.56,0-5.25
		c-10.16-1.56-10.54-1.24-10.53,8.14c0.01,19.62,0.01,39.25-0.02,58.87c0,2.11-0.25,4.21-0.42,6.83
		c-75.74-18.13-151.05-18.06-226.97,0.03C178.8,532.6,178.8,508.24,178.8,483.99z M299.82,436.01
		c-1.71,26.19,22.38,49.38,47.48,47.21c0-15.65,0-31.31,0-47.21C331.35,436.01,315.76,436.01,299.82,436.01z M303.09,420.16
		c14.06,0,27.68,0.05,41.3-0.09c1.07-0.01,3.05-1.34,3.06-2.09c0.21-9.22,0.14-18.45,0.14-27.58
		C329.81,388,307,403.25,303.09,420.16z M393.09,435.77c-8.69,0-17.15,0.13-25.6-0.06c-3.29-0.08-4.33,1.04-4.29,4.28
		c0.14,12.63,0.05,25.26,0.08,37.9c0,0.72,0.3,1.44,0.47,2.2C381.07,474.33,394.96,453.61,393.09,435.77z M389.83,420.17
		c-3.38-12.07-17-25.31-26.55-26.18c0,7.65-0.13,15.29,0.14,22.91c0.04,1.13,1.96,3.08,3.06,3.12
		C374.11,420.3,381.75,420.17,389.83,420.17z M162.05,621.18c6.25-0.28,11.76-0.09,17.11-0.9c5.26-0.8,7.98-4.42,8.25-9.24
		c0.28-4.89-2.42-10.09-7.39-10.39c-9.33-0.57-12.05-4.85-10.64-13.38c0.11-0.68-2.33-2.47-3.59-2.47
		c-1.24-0.01-3.56,1.57-3.58,2.49C161.96,598.21,162.05,609.16,162.05,621.18z M295.03,585.29c-7.02-1.2-7.23-1.05-7.26,4.75
		c-0.03,6.15-0.03,12.3-0.04,18.45c0,4.07,0,8.14,0,12.2c2.71,0,4.66,0,7.03,0c0.1-2.22,0.32-4.17,0.26-6.11
		c-0.1-3.03,0.33-5.05,4.26-4.98c3.7,0.06,4.02,1.99,3.9,4.78c-0.09,2.08-0.02,4.16-0.02,6.2c2.92,0,4.99,0,7.07,0
		c0-7.27,0-14.14,0-20.98c-2.5,0-4.57,0-6.73,0c-0.14,1-0.33,1.65-0.31,2.28c0.11,3.04,0.08,5.56-4.3,5.43
		c-4.63-0.15-3.82-3.22-3.85-5.92C294.99,596.09,295.03,590.78,295.03,585.29z M205.99,621.87c8.06-0.02,12.88-4.27,12.78-11.27
		c-0.11-7.29-5.58-12.3-13.39-12.28c-7.7,0.02-13.08,4.74-12.99,11.4C192.47,616.76,198.23,621.89,205.99,621.87z M237.44,621.87
		c7.9,0.02,13.14-4.47,13.06-11.19c-0.08-7.03-5.88-12.31-13.53-12.34c-7.91-0.03-12.89,4.36-12.83,11.3
		C224.21,617.05,229.42,621.84,237.44,621.87z M331.36,621.88c8.05,0.03,12.77-4.14,12.73-11.25c-0.04-7.28-5.47-12.31-13.28-12.3
		c-7.89,0.02-12.77,4.36-12.72,11.34C318.14,617.07,323.33,621.84,331.36,621.88z M371.99,599.47c-0.99,0.01-1.99,0.01-2.98,0.02
		c0,4.49,0.16,8.99-0.06,13.47c-0.15,3.1-1.04,6.21-5.02,6.15c-4.15-0.07-5.09-3.08-5.12-6.54c-0.04-4.27-0.01-8.54-0.01-12.92
		c-2.78,0-4.97,0-7.52,0c0,4.2,0,7.99,0,11.79c0,1-0.06,2,0.03,2.98c0.36,4.22,2.77,6.58,6.87,7.3c6.18,1.09,11.98-0.32,12.67-4.1
		C371.93,611.69,371.68,605.53,371.99,599.47z M265.14,602.71c0-4.98,0.24-9.98-0.18-14.93c-0.1-1.16-2.3-2.78-3.7-2.98
		c-0.96-0.14-3.17,1.8-3.2,2.85c-0.25,9.96-0.13,19.93-0.19,29.89c-0.02,2.56,1.07,3.43,3.61,3.48c2.9,0.06,3.77-1.16,3.69-3.86
		C265.05,612.35,265.15,607.53,265.14,602.71z M380.81,619.07c0.01,0.53,0.02,1.07,0.03,1.6c3.91,0,7.87,0.42,11.7-0.13
		c3.38-0.48,5.48-2.93,5.69-6.62c0.21-3.7-2.09-5.36-5.13-6.42c-1.41-0.49-3.01-0.63-4.24-1.39c-0.96-0.59-1.48-1.9-2.2-2.88
		c0.89-0.63,1.71-1.58,2.7-1.83c1.86-0.48,3.83-0.57,5.76-0.81c-0.08-0.56-0.16-1.11-0.25-1.67c-4.02,0.43-8.17,0.4-11.98,1.52
		c-1.61,0.47-3.43,3.35-3.45,5.16c-0.02,1.73,1.88,3.83,3.46,5.13c1.31,1.08,3.54,0.96,5.08,1.86c1.42,0.82,2.47,2.27,3.68,3.45
		c-1.52,1.02-2.92,2.49-4.6,2.93C385.11,619.46,382.91,619.07,380.81,619.07z M421.97,599.31c-4.38,0-8.78-0.27-13.11,0.17
		c-1.23,0.13-3.08,2.28-3.21,3.63c-0.42,4.62-0.39,9.31-0.08,13.94c0.09,1.29,1.69,3.44,2.74,3.52c4.61,0.39,9.26,0.17,15.19,0.17
		c-4.13-3.06-10.51,0.86-10.59-6.08c-0.07-6.24,5.96-2.01,8.23-4.6c-2.35-2.49-8.82,1.76-8.21-5.02
		C413.49,598.83,419.14,602.41,421.97,599.31z M267.29,610.19c6.16,11.45,6.35,11.59,14.08,10.13c-2.31-6.7-12.84-12.14-3.1-20.94
		C271.39,600.48,270.88,606.88,267.29,610.19z"/>
	<path class="st0" d="M305.21,291.4c1.32,4.08,2.29,8.31,4.01,12.2c7.92,17.86,21.15,31.25,36.76,42.53
		c17.93,12.96,36.41,25.23,53.7,38.98c11.12,8.84,20.81,19.56,30.55,29.98c3.22,3.44,4.61,8.59,6.84,12.96
		c-0.39,0.44-0.78,0.87-1.17,1.31c-1.2-0.48-3.2-0.68-3.5-1.49c-4.92-13.67-15.51-22.91-26.22-31.44
		c-18.71-14.91-38.21-28.85-57.63-42.85c-15.13-10.91-28.9-22.92-38.54-39.2c-7.27-12.28-9.65-26.02-12.67-39.59
		c-1.57-7.07-2.88-14.2-4.56-22.58c-1.05,1.88-1.76,2.67-1.95,3.57c-2.82,13.44-4.99,27.05-8.48,40.31
		c-5.76,21.89-20.11,37.99-37.81,51.17c-15.47,11.52-31.9,21.8-47.13,33.62c-12.19,9.46-23.53,20.09-34.6,30.86
		c-4.26,4.15-6.67,10.17-10.09,15.22c-0.75,1.11-2.23,1.74-3.75,2.1c0.63-7.39,4.03-13.01,8.48-18.03
		c17.24-19.46,37.8-34.97,59.12-49.63c11.37-7.82,22.82-15.63,33.43-24.41c13.53-11.2,23.81-25.01,28.65-42.29
		c0.22-0.79,0.4-1.59,0.5-2.4c0.03-0.28-0.23-0.59-0.51-1.22c-0.65,0.48-1.46,0.79-1.78,1.36c-14.57,25.66-37.04,42.66-62.14,56.92
		c-19.66,11.17-39.36,22.32-58.53,34.3c-15.18,9.49-27.19,22.35-34.68,38.93c-4.05-0.22-3.65-2.56-2.25-4.71
		c4.33-6.67,8.33-13.65,13.44-19.68c13.72-16.19,32.43-25.71,50.3-36.35c19.99-11.9,40.33-23.35,59.43-36.57
		c16.21-11.22,27.85-27.03,35.89-45.2c0.6-1.35,0.89-2.82,1.33-4.24c-0.4-0.18-0.8-0.35-1.19-0.53c-1.23,1.86-2.55,3.68-3.69,5.6
		c-14.73,24.82-36.91,40.51-63,51.52c-17.6,7.43-35.07,15.18-52.66,22.64c-29.06,12.32-53.63,30.64-74.05,54.6
		c-1.51,1.77-3.06,3.5-4.61,5.24c-0.21,0.24-0.55,0.37-0.88,0.57c-4.41-2.23-1.6-4.4,0.12-6.46c22.44-26.75,49.76-46.81,82.07-60.27
		c20.7-8.62,41.3-17.53,61.61-27.03c21.56-10.09,38.23-25.7,49.62-46.78c3.58-6.63,7.66-13,11.51-19.49c-0.3-0.37-0.6-0.75-0.9-1.12
		c-3.56,1.84-7.35,3.35-10.66,5.56c-25.98,17.41-51.78,35.08-77.8,52.43c-40.97,27.32-82.07,54.46-123.12,81.67
		c-1.37,0.91-2.79,1.73-4.63,2.86c-2.35-4.42-4.56-8.59-6.94-13.08c12.26-8.13,24.16-16.01,36.05-23.9
		c47.01-31.17,94.05-62.31,141.02-93.54c7.18-4.77,13.59-10.89,21.17-14.84c28.11-14.64,60.43-9.42,84.51,11.24
		c11.28,9.68,24.54,17.06,36.92,25.46c0.35,0.23,0.93,0.12,2.28,0.26c0-7.91,0-15.64,0-23.37c0-6.88,0-6.87,6.68-6.86
		c5.67,0.01,11.34,0.14,17-0.05c3.34-0.11,4.69,0.84,4.72,4.47c0.09,13.96,0.64,27.92,0.7,41.88c0.02,3.64,1.36,5.62,4.31,7.56
		c34.88,22.98,69.66,46.1,104.46,69.2c1.23,0.82,2.4,1.72,4.01,2.88c-2.31,4.29-4.55,8.45-7.05,13.08
		c-72.1-47.9-143.79-95.53-216.27-143.68c-0.1,1.96-0.39,2.72-0.12,3.14c7.76,12.18,15.06,24.7,23.52,36.38
		c8.63,11.89,20.45,20.62,33.69,26.81c22.27,10.41,44.77,20.33,67.39,29.96c31.42,13.38,57.89,33.22,79.7,59.36
		c1.68,2.02,4.09,3.97,0,6.31c-4.76-5.13-9.57-10.16-14.23-15.34c-21.46-23.85-48.92-38.46-77.91-50.83
		c-18.33-7.82-36.68-15.64-54.71-24.12c-21.09-9.92-37.02-25.71-49.04-45.53c-0.77-1.28-1.57-2.54-2.41-3.77
		c-0.14-0.21-0.59-0.22-1.91-0.65c0.87,2.56,1.36,4.65,2.26,6.54c10.49,22.09,26.42,39.52,47.1,52.3
		c19.37,11.96,39.35,22.95,59.01,34.44c17.18,10.04,33.81,20.82,45.3,37.64c3.16,4.62,5.77,9.6,8.64,14.42
		c-0.38,0.55-0.76,1.11-1.13,1.66c-1.28-0.58-3.25-0.81-3.72-1.78c-9.03-18.29-23.58-31.23-40.69-41.46
		c-18.84-11.26-38.01-21.96-57.03-32.92c-23.3-13.43-43.39-30.22-56.83-53.99c-0.29-0.5-0.86-0.84-1.3-1.26
		C306.08,291.05,305.65,291.22,305.21,291.4z"/>
	<path class="st0" d="M178.8,483.99c0,24.25,0,48.61,0,73.78c75.92-18.09,151.23-18.16,226.97-0.03c0.17-2.62,0.42-4.73,0.42-6.83
		c0.03-19.62,0.03-39.25,0.02-58.87c0-9.38,0.37-9.7,10.53-8.14c0,1.69,0,3.47,0,5.25c0,22.45,0.08,44.9-0.08,67.36
		c-0.03,3.9,0.98,6.16,4.93,7.32c3.44,1.01,6.64,2.82,10.79,4.64c-94.61-16.55-188.17-16.64-280.6,0.25
		c2.93-1.28,6.92-3.42,11.17-4.77c4.11-1.3,5.21-3.72,5.18-7.74c-0.13-21.45-0.05-42.91-0.05-64.36
		C168.09,482.57,168.66,482.12,178.8,483.99z"/>
	<path class="st0" d="M299.82,436.01c15.94,0,31.53,0,47.48,0c0,15.9,0,31.56,0,47.21C322.2,485.39,298.1,462.19,299.82,436.01z"/>
	<path class="st0" d="M303.09,420.16c3.91-16.91,26.72-32.16,44.5-29.77c0,9.13,0.07,18.36-0.14,27.58
		c-0.02,0.75-1.99,2.08-3.06,2.09C330.77,420.21,317.16,420.16,303.09,420.16z"/>
	<path class="st0" d="M393.09,435.77c1.87,17.84-12.02,38.56-29.34,44.31c-0.17-0.76-0.47-1.48-0.47-2.2
		c-0.03-12.63,0.06-25.26-0.08-37.9c-0.04-3.24,1-4.36,4.29-4.28C375.94,435.9,384.4,435.77,393.09,435.77z"/>
	<path class="st0" d="M389.83,420.17c-8.08,0-15.72,0.13-23.35-0.15c-1.1-0.04-3.02-2-3.06-3.12c-0.27-7.62-0.14-15.25-0.14-22.91
		C372.84,394.86,386.45,408.1,389.83,420.17z"/>
	<path class="st0" d="M162.05,621.18c0-12.01-0.09-22.97,0.16-33.91c0.02-0.92,2.34-2.5,3.58-2.49c1.26,0.01,3.7,1.8,3.59,2.47
		c-1.41,8.53,1.31,12.81,10.64,13.38c4.97,0.31,7.67,5.51,7.39,10.39c-0.27,4.82-2.99,8.44-8.25,9.24
		C173.81,621.09,168.3,620.89,162.05,621.18z M169.57,601.38c0,5.08-0.17,10.2,0.17,15.28c0.05,0.8,2.54,2.22,3.68,2.03
		c4.2-0.7,6.32-4.82,5.72-10.17C178.57,603.46,176.04,601.4,169.57,601.38z"/>
	<path class="st0" d="M295.03,585.29c0,5.49-0.05,10.79,0.02,16.09c0.03,2.7-0.78,5.77,3.85,5.92c4.39,0.14,4.41-2.39,4.3-5.43
		c-0.02-0.64,0.17-1.28,0.31-2.28c2.15,0,4.23,0,6.73,0c0,6.85,0,13.71,0,20.98c-2.08,0-4.15,0-7.07,0c0-2.03-0.07-4.12,0.02-6.2
		c0.12-2.79-0.21-4.72-3.9-4.78c-3.93-0.07-4.36,1.95-4.26,4.98c0.06,1.94-0.16,3.89-0.26,6.11c-2.37,0-4.31,0-7.03,0
		c0-4.06,0-8.13,0-12.2c0.01-6.15,0-12.3,0.04-18.45C287.8,584.24,288.01,584.09,295.03,585.29z"/>
	<path class="st0" d="M205.99,621.87c-7.76,0.02-13.51-5.12-13.6-12.14c-0.09-6.66,5.29-11.38,12.99-11.4
		c7.81-0.02,13.28,4.99,13.39,12.28C218.87,617.6,214.05,621.85,205.99,621.87z M210.71,610.53c-0.2-2.02,0.12-3.93-0.63-5.24
		c-1.11-1.95-2.97-3.47-4.51-5.17c-1.47,1.55-3.83,2.92-4.22,4.7c-0.71,3.29-0.79,6.95-0.07,10.22c0.43,1.94,2.91,3.43,4.47,5.13
		c1.52-1.87,3.28-3.59,4.46-5.66C210.89,613.35,210.6,611.64,210.71,610.53z"/>
	<path class="st0" d="M237.44,621.87c-8.02-0.02-13.23-4.81-13.29-12.23c-0.06-6.94,4.92-11.33,12.83-11.3
		c7.65,0.03,13.44,5.31,13.53,12.34C250.58,617.4,245.34,621.89,237.44,621.87z M242.44,610.01c-0.36-1.87-0.38-4.33-1.37-6.29
		c-0.76-1.5-2.79-3.36-4.17-3.29c-1.41,0.07-3.28,2.07-3.92,3.64c-0.84,2.05-1.1,4.57-0.82,6.79c0.45,3.72-0.15,9.3,5.27,9.06
		C242.65,619.67,241.66,614.2,242.44,610.01z"/>
	<path class="st0" d="M331.36,621.88c-8.03-0.03-13.21-4.8-13.27-12.2c-0.05-6.98,4.82-11.33,12.72-11.34
		c7.8-0.02,13.24,5.02,13.28,12.3C344.12,617.74,339.41,621.91,331.36,621.88z M336.19,611.15c0.03-7.1-2.3-11.69-5.45-10.89
		c-5.36,1.35-4.64,6.26-4.75,10.19c-0.17,6.02,2.37,10.35,5.43,9.64C336.64,618.88,335.48,614.07,336.19,611.15z"/>
	<path class="st0" d="M371.99,599.47c-0.31,6.06-0.06,12.22-1.13,18.13c-0.69,3.78-6.49,5.19-12.67,4.1
		c-4.1-0.72-6.51-3.07-6.87-7.3c-0.08-0.99-0.03-1.99-0.03-2.98c0-3.79,0-7.59,0-11.79c2.55,0,4.74,0,7.52,0
		c0,4.38-0.03,8.65,0.01,12.92c0.03,3.47,0.97,6.48,5.12,6.54c3.98,0.06,4.87-3.04,5.02-6.15c0.22-4.48,0.06-8.98,0.06-13.47
		C370,599.48,371,599.48,371.99,599.47z"/>
	<path class="st0" d="M265.14,602.71c0,4.82-0.09,9.63,0.04,14.45c0.07,2.7-0.79,3.92-3.69,3.86c-2.53-0.05-3.62-0.92-3.61-3.48
		c0.06-9.96-0.06-19.93,0.19-29.89c0.03-1.05,2.23-2.99,3.2-2.85c1.4,0.2,3.6,1.82,3.7,2.98
		C265.38,592.73,265.14,597.73,265.14,602.71z"/>
	<path class="st0" d="M380.81,619.07c2.09,0,4.29,0.39,6.25-0.12c1.67-0.44,3.08-1.91,4.6-2.93c-1.21-1.18-2.26-2.63-3.68-3.45
		c-1.54-0.89-3.77-0.78-5.08-1.86c-1.58-1.3-3.48-3.4-3.46-5.13c0.02-1.81,1.84-4.69,3.45-5.16c3.82-1.12,7.97-1.09,11.98-1.52
		c0.08,0.56,0.16,1.11,0.25,1.67c-1.92,0.25-3.89,0.33-5.76,0.81c-0.99,0.26-1.81,1.2-2.7,1.83c0.72,0.99,1.24,2.29,2.2,2.88
		c1.23,0.76,2.83,0.9,4.24,1.39c3.04,1.06,5.34,2.72,5.13,6.42c-0.21,3.69-2.32,6.14-5.69,6.62c-3.83,0.54-7.79,0.13-11.7,0.13
		C380.83,620.14,380.82,619.61,380.81,619.07z"/>
	<path class="st0" d="M421.97,599.31c-2.84,3.09-8.48-0.48-9.04,5.72c-0.61,6.79,5.86,2.53,8.21,5.02c-2.27,2.6-8.3-1.63-8.23,4.6
		c0.08,6.95,6.46,3.03,10.59,6.08c-5.92,0-10.58,0.22-15.19-0.17c-1.05-0.09-2.65-2.24-2.74-3.52c-0.32-4.63-0.34-9.32,0.08-13.94
		c0.12-1.35,1.98-3.5,3.21-3.63C413.19,599.04,417.6,599.31,421.97,599.31z"/>
	<path class="st0" d="M267.29,610.19c3.59-3.31,4.1-9.71,10.98-10.81c-9.74,8.8,0.79,14.24,3.1,20.94
		C273.64,621.78,273.45,621.64,267.29,610.19z"/>
	<path class="st0" d="M169.57,601.38c6.47,0.03,9,2.08,9.57,7.14c0.6,5.35-1.52,9.46-5.72,10.17c-1.14,0.19-3.63-1.23-3.68-2.03
		C169.4,611.58,169.57,606.46,169.57,601.38z"/>
	<path class="st0" d="M210.71,610.53c-0.11,1.1,0.17,2.82-0.5,3.99c-1.18,2.06-2.94,3.79-4.46,5.66c-1.56-1.69-4.04-3.18-4.47-5.13
		c-0.73-3.27-0.64-6.93,0.07-10.22c0.38-1.79,2.75-3.15,4.22-4.7c1.54,1.7,3.4,3.22,4.51,5.17
		C210.83,606.6,210.51,608.51,210.71,610.53z"/>
	<path class="st0" d="M242.44,610.01c-0.79,4.19,0.2,9.67-5.01,9.91c-5.43,0.25-4.82-5.34-5.27-9.06c-0.27-2.22-0.01-4.74,0.82-6.79
		c0.64-1.57,2.51-3.56,3.92-3.64c1.37-0.07,3.41,1.78,4.17,3.29C242.07,605.68,242.08,608.14,242.44,610.01z"/>
	<path class="st0" d="M336.19,611.15c-0.71,2.91,0.45,7.72-4.78,8.94c-3.05,0.71-5.6-3.61-5.43-9.64c0.11-3.93-0.61-8.84,4.75-10.19
		C333.89,599.47,336.21,604.05,336.19,611.15z"/>
</g>
</svg>
